<?xml version="1.0" encoding="UTF-8"?>
<svg width="64" height="64" version="1.1" viewBox="0 0 64 64" xmlns="http://www.w3.org/2000/svg">
 <path d="M31.94.001c-2.97 7.28-4.75 12.04-8.04 18.97 2.02 2.14 4.5 4.62 8.53 7.44-4.33-1.78-7.28-3.58-9.5-5.44-4.22 8.8-10.84 21.34-24.27 45.42 10.55-6.1 18.73-9.86 26.34-11.3-.33-1.42-.51-2.96-.5-4.57l.01-.61c.22-8.77 4.8-15.52 10.2-15.1 5.4.42 9.6 7.89 9.37 16.66-.04 1.54-.2 3.03-.5 4.4 7.54 1.48 15.64 5.21 26.07 11.24-2.05-3.78-3.89-7.2-5.64-10.44-2.76-2.14-5.64-4.93-11.52-7.95 4.03 1.05 6.93 2.26 9.17 3.61C47.6 31.8 46.15 28.2 31.94 0z" style="fill:#000000"/>
</svg> 